<?xml version="1.0" encoding="UTF-8" standalone="no"?>
<svg xmlns="http://www.w3.org/2000/svg" 
	xmlns:xlink="http://www.w3.org/1999/xlink" 
	width="1000" height="600" viewBox="0 0 5000 3000" 
	id="flagWarDERoot">

	<!-- Defs provides a better method to control elements; e.g: to simulate XHTML CSS z-index -->
	<defs id="crossTopLeftDefs">
		<path id="initialCrossTopLeft" 
			d="M725.6171875,821.5 c-32.269043-70.8891602-52.1806641-148.5913086-56.9750977-230.3579102 
			C750.4082031,595.9365234,828.1108398,615.8481445,899,648.1171875v-191.234375 
			c-70.8891602,32.269043-148.5917969,52.1806641-230.3579102,56.9750977 
			c4.7944336-81.7666016,24.7060547-159.46875,56.9750977-230.3579102h-191.234375 
			c32.269043,70.8891602,52.1806641,148.5913086,56.9750977,230.3579102 
			C509.5917969,509.0634766,431.8891602,489.1518555,361,456.8828125v191.234375 
			c70.8891602-32.269043,148.5917969-52.1806641,230.3579102-56.9750977  
			c-4.7944336,81.7666016-24.706543,159.46875-56.9750977,230.3579102H725.6171875z"/>

		<!-- CrossTopLeft -->
		<g id="crossLeftTop">
			<!-- Copies of the initial top cross to modify stroke width. We don't need repeat more crosses. -->
			<use xlink:href="#initialCrossTopLeft" stroke="#fff" stroke-width="132"/>
			<use xlink:href="#initialCrossTopLeft" stroke="#000" stroke-width="72"/>
			<use xlink:href="#initialCrossTopLeft" stroke="#fff" stroke-width="34"/>
			<use xlink:href="#initialCrossTopLeft" stroke="#000" stroke-width="0"/>
		</g>
	</defs>

	<defs id="svasticaDefs">
		<!-- Pure Svástica -->
		<g id="svastica">
			<path id="h" d="M1480,975 v525 h600" transform="rotate(45, 1900, 1500)"/>

			<use xlink:href="#h" transform="rotate(90, 1900, 1500)"/>
			<use xlink:href="#h" transform="rotate(180, 1900, 1500)"/>
			<use xlink:href="#h" transform="rotate(270, 1900, 1500)"/>
		</g>
		<!-- Svástica Draw -->
		<g id="svasticaDraw" fill="none" stroke="#000">
			<use xlink:href="#svastica" stroke-width="210"/>
			<use xlink:href="#svastica" stroke="#fff" stroke-width="180"/>
			<use xlink:href="#svastica" stroke-width="150"/>

		</g>
	</defs>

	<defs id="circlesDefs">
		<g id="circlesWhiteExt" fill="#fff">
			<rect width="5000" height="750" y="1125"/>
			<rect width="750" height="3000" x="1525"/>
			<circle cx="1900" cy="1500" r="1000"/>
		</g>

		<g id="circlesBlackExt" fill="#000">
			<rect width="5000" height="600" y="1200" />
			<rect width="600" height="3000" x="1600"/>
			<circle cx="1900" cy="1500" r="925"/>
		</g>
		<g id="centralCircles" fill="#fff">
			<circle cx="1900" cy="1500" r="850"/>
			<circle cx="1900" cy="1500" r="782" stroke="#000" stroke-width="46"/>
		</g>

		<!-- Recurrent groups -->
		<!-- Central Crosses -->
		<g id="centralCrosses">
			<rect id="horizontalRect" width="5500" height="376" x="-248" y="1310" fill="none" 
				stroke="#fff" stroke-width="76" stroke-miterlimit="0" stroke-dashoffset="0"/>
			<use xlink:href="#horizontalRect" transform="rotate(90, 1900, 1500)"/>
		</g>
		<!-- External Circles -->
		<g id="externalCircles">

			<use xlink:href="#circlesWhiteExt"/>
			<use xlink:href="#circlesBlackExt"/>
		</g>
	</defs>

	<!-- Run... DE War Flag -->
	<g id="flagWarDE">
		<rect width="5000" height="3000" fill="#dd0000"/>
		<use xlink:href="#crossLeftTop"/>

		<use xlink:href="#externalCircles"/>
		<use xlink:href="#centralCrosses"/>
		<use xlink:href="#centralCircles"/>
		<use xlink:href="#svasticaDraw"/>
	</g>
	<!-- DE War Flag -->
</svg>

