<?xml version="1.0" encoding="UTF-8" standalone="no"?>
<!-- Created with Inkscape (http://www.inkscape.org/) -->

<svg
   xmlns:dc="http://purl.org/dc/elements/1.1/"
   xmlns:cc="http://creativecommons.org/ns#"
   xmlns:rdf="http://www.w3.org/1999/02/22-rdf-syntax-ns#"
   xmlns:svg="http://www.w3.org/2000/svg"
   xmlns="http://www.w3.org/2000/svg"
   version="1.1"
   width="1350"
   height="900"
   id="svg2">
  <rect
     width="1350"
     height="900"
     style="fill:#ffffff" />
  <rect
     width="1350"
     height="150"
     y="750"
     id="rect6"
     style="fill:#3399ff" />
  <polygon
     points="1878,2146 2250,1000 2622,2146 3827,2146 2852,2854 3224,4000 2250,3292 1276,4000 1648,2854 673,2146 "
     transform="matrix(0.151,0,0,0.151,-0.673,-2)"
     id="polygon8"
     style="fill:#d81e05" />
  <path
     d="m 995.375,180 c 103.9535,72.8003 194.2999,189.31659 107.9375,290.5625 l -138.5,-140.40625 51.7813,-52.9375 -20.81255,-23.5 -63.15625,2.40625 -87.46875,89.40625 49.6875,56.125 L 938.53125,357 1068.5,494.34375 c -35.2692,11.72126 -74.07363,-1.89749 -115.25,-32.5 -1.57129,-1.16771 -1.70323,-1.40845 -3.28125,-2.625 0,0 -12.40581,20.89058 -19.625,20.53125 -12.32781,-0.61359 -25.67359,4.20862 -28.53125,26.78125 -1.36885,10.81154 -87.81692,37.19848 -53.96875,78.5 34.4166,29.14833 60.566,-32.69015 72.96875,-53.625 6.07935,-10.26146 23.49638,-1.31789 30.71875,-26.09375 0.3771,-1.29362 2.7634,-1.38479 4.5625,-2.34375 34.8843,45.75654 101.81455,54.69971 153.93745,35.28125 l 52.5626,55.53125 c 22.4905,20.58007 48.9054,-15.15913 32.0624,-30.65625 l -46.2812,-46.9375 c 5.0297,-4.24626 9.6575,-8.87527 13.75,-13.90625 46.0995,-56.67112 40.408,-103.20043 31.75,-143.5 C 1173.4095,263.52337 1073.6804,205.06824 995.375,180 z"
     id="rect3008" style="fill:#d81e05" />
</svg>
