<?xml version="1.0" encoding="utf-8"?>
<!-- Generator: Adobe Illustrator 19.1.0, SVG Export Plug-In . SVG Version: 6.00 Build 0)  -->
<svg version="1.1" id="Layer_1" xmlns="http://www.w3.org/2000/svg" xmlns:xlink="http://www.w3.org/1999/xlink" x="0px" y="0px"
	 viewBox="0 0 24 15" enable-background="new 0 0 24 15" xml:space="preserve">
<path fill-rule="evenodd" clip-rule="evenodd" fill="#579861" d="M14.5,4.7l5,1L16,9.7l0.6,5.3L12,12.7L7.4,15L8,9.7L4.5,5.7l5-1
	L12,0"/>
<g>
	<polygon fill="#FFFFFF" points="21,11 20.5,10.5 20.5,10 18.5,10 18.5,10.5 18,11 16,11 15.5,10.5 15.5,9.5 16,9 16.5,9 16.5,8.5 
		17,8 16.5,7.5 16.5,7 16,7 15.5,6.5 15.5,5.5 16,5 18,5 18.5,5.5 18.5,6 20.5,6 20.5,5.5 21,5 23,5 23.5,5.5 23.5,6.5 23,7 22.5,7 
		22.5,7.5 22,8 22.5,8.5 22.5,9 23,9 23.5,9.5 23.5,10.5 23,11 	"/>
	<path fill="#579861" d="M23,5.5v1h-1v1h-1v1h1v1h1v1h-2v-1h-3v1h-2v-1h1v-1h1v-1h-1v-1h-1v-1h2v1h3v-1H23 M23,4.5h-2l-1,1h-1l-1-1
		h-2l-1,1v1l1,1h0L16.5,8L16,8.5h0l-1,1v1l1,1h2l1-1h1l1,1h2l1-1v-1l-1-1h0L22.5,8L23,7.5h0l1-1v-1L23,4.5L23,4.5z"/>
</g>
<g>
	<polygon fill="#FFFFFF" points="5.5,11 5.5,10 3.5,10 3.5,11 0.5,11 0.5,5 3.5,5 3.5,6 4.5,6 4.5,7 4.5,6 5.5,6 5.5,5 8.5,5 
		8.5,11 	"/>
	<path fill="#579861" d="M8,5.5v5H6v-2H5v1H4v-1H3v2H1v-5h2v1h1v1h1v-1h1v-1H8 M9,4.5H8H6H5v1H4h0v-1H3H1H0v1v5v1h1h2h1v-1h0h1v1h1
		h2h1v-1v-5V4.5L9,4.5z"/>
</g>
<g>
	<polygon fill="#FFFFFF" points="13,11 12.5,10.5 12.5,9 11.5,9 11.5,10.5 11,11 9,11 8.5,10.5 8.5,6.5 9,6 9.5,6 9.5,5.5 10,5 
		14,5 14.5,5.5 14.5,6 15,6 15.5,6.5 15.5,10.5 15,11 	"/>
	<path fill="#579861" d="M14,5.5v1h1v4h-2v-2h-2v2H9v-4h1v-1H14 M11,7.5h2v-1h-2V7.5 M14,4.5h-4l-1,1l-1,1v4l1,1h2l1-1v-1h0v1l1,1h2
		l1-1v-4l-1-1L14,4.5L14,4.5z"/>
</g>
</svg>
